<?xml version="1.0" encoding="UTF-8"?>
<svg version="1.1" xmlns="http://www.w3.org/2000/svg" width="512" height="512">
<path d="M0 0 C1.47389918 -0.00668677 1.47389918 -0.00668677 2.97757411 -0.01350862 C4.06490313 -0.01332426 5.15223215 -0.01313989 6.27251053 -0.01294994 C7.99606636 -0.01846498 7.99606636 -0.01846498 9.7544415 -0.02409142 C12.95358936 -0.03322947 16.15270708 -0.03783041 19.35186577 -0.04048073 C22.79847514 -0.04437975 26.2450696 -0.05395838 29.69166946 -0.0626936 C38.02018741 -0.08246969 46.3487066 -0.09252578 54.67724216 -0.10142139 C58.59750058 -0.10580252 62.51775764 -0.11116979 66.43801498 -0.11641026 C79.46689321 -0.13342388 92.49577058 -0.1479185 105.5246582 -0.155159 C108.90685655 -0.15706895 112.28905489 -0.15898927 115.6712532 -0.16094494 C116.5119017 -0.16142868 117.3525502 -0.16191242 118.2186729 -0.16241082 C131.83950564 -0.17071278 145.4602506 -0.19605189 159.081045 -0.22852562 C173.05939246 -0.26158058 187.03769529 -0.27960635 201.01608205 -0.28280324 C208.86679859 -0.28496982 216.71738715 -0.29373996 224.56806564 -0.31926441 C231.25357471 -0.34095014 237.93892471 -0.3490324 244.62446496 -0.33929763 C248.03589542 -0.33474663 251.44699755 -0.33668492 254.85838318 -0.35605907 C258.55676371 -0.37366625 262.25430623 -0.36672589 265.95268631 -0.35352612 C267.03109244 -0.36449536 268.10949857 -0.37546461 269.22058368 -0.38676625 C275.27323727 -0.33446456 278.75380172 0.10737348 283.3665657 4.13422108 C287.16921099 8.13700558 287.5617184 11.02552932 287.4681282 16.35297108 C287.44613358 17.97622303 287.44613358 17.97622303 287.42369461 19.63226795 C287.40484207 20.45791248 287.38598953 21.28355701 287.3665657 22.13422108 C288.92214188 22.10280018 288.92214188 22.10280018 290.50914383 22.07074451 C294.43787129 21.99713972 298.36654107 21.95199426 302.29576492 21.91449451 C303.98109125 21.89464832 305.66635131 21.86756215 307.35142899 21.83246326 C327.9488034 21.41486593 345.99251591 25.38109413 361.3665657 40.13422108 C375.64858784 56.21573244 378.52052236 73.75666081 378.51182938 94.53900623 C378.51482657 95.97723445 378.51823038 97.41546186 378.52200699 98.85368824 C378.5307899 102.73573724 378.53318256 106.61776416 378.53382277 110.49982214 C378.53453603 112.92865093 378.53667545 115.3574742 378.53931999 117.78630161 C378.54855144 126.26881482 378.55265726 134.75131238 378.55186844 143.23383045 C378.55126684 151.12792084 378.56184044 159.02194308 378.5776121 166.91601622 C378.59069735 173.70861081 378.59605199 180.50118313 378.59541303 187.29379022 C378.59515852 191.3443504 378.59798429 195.39484981 378.60859108 199.44539738 C378.61828976 203.25233492 378.61833917 207.05915376 378.61107445 210.86609554 C378.61003111 212.25963928 378.61237655 213.6531905 378.61843491 215.04672146 C378.68417736 231.22065214 378.68417736 231.22065214 374.1790657 236.88422108 C369.85734203 240.34160002 365.9201527 242.51114773 360.3040657 242.07172108 C355.21454331 241.15442344 351.64866611 238.85842506 348.5540657 234.69672108 C346.44213065 230.13938755 346.24096727 225.83837135 346.23526382 220.86096668 C346.22925156 218.96436047 346.22925156 218.96436047 346.22311783 217.02943897 C346.22359287 215.63565538 346.22412897 214.24187181 346.22472 212.84808826 C346.2216865 211.37428655 346.21816452 209.90048577 346.21419144 208.42668629 C346.20631613 205.25648107 346.20116266 202.08628704 346.19790077 198.9160738 C346.19197693 193.89762928 346.17542317 188.87925517 346.15655899 183.86084461 C346.15022194 182.14067177 346.14389631 180.42049889 346.13758183 178.70032597 C346.13441601 177.83896046 346.1312502 176.97759496 346.12798846 176.09012747 C346.0859633 164.41099013 346.05294382 152.73188604 346.04063797 141.05267811 C346.032246 133.16891192 346.00971435 125.28532072 345.9712823 117.40164208 C345.95156187 113.23354069 345.93910372 109.06570064 345.94411659 104.89754963 C345.94877807 100.97394865 345.93487654 97.05084255 345.90710449 93.12734127 C345.90021816 91.69273281 345.90003849 90.25807289 345.90730476 88.8234663 C345.95601637 78.1197175 344.58474087 69.79382649 337.2103157 61.70453358 C330.09594295 55.64525847 322.38000227 53.9737906 313.3196907 54.03656483 C312.16288803 54.03868725 312.16288803 54.03868725 310.98271561 54.04085255 C308.52729232 54.04643574 306.07196128 54.05898512 303.6165657 54.07172108 C301.94859827 54.07673825 300.28062941 54.08130078 298.61265945 54.08539295 C294.53059283 54.09639967 290.44859489 54.11365271 286.3665657 54.13422108 C286.03785477 55.37172108 285.70914383 56.60922108 285.37047195 57.88422108 C282.62975638 67.94695602 279.50960432 77.71889491 275.7415657 87.44672108 C255.81887247 139.00406135 272.75760128 185.2461923 293.04344559 233.41774464 C320.68413378 299.07287109 338.92876059 366.90297307 311.3665657 436.13422108 C308.99561525 441.62888077 306.23646704 446.88763904 303.3665657 452.13422108 C302.73327478 453.33579196 302.10045597 454.5376118 301.4681282 455.73968983 C287.74222112 481.30520543 266.21317964 501.61724588 238.3665657 510.59125233 C233.59701806 511.88610999 229.21069255 512.26459009 224.26051712 512.2813921 C223.55629037 512.28506879 222.85206362 512.28874547 222.12649667 512.29253358 C219.77243017 512.30352491 217.41840788 512.30740657 215.06431961 512.31122303 C213.37365455 512.3174914 211.68299085 512.32413853 209.99232864 512.33113575 C204.44260486 512.35214395 198.89288092 512.36253894 193.3431282 512.37250233 C191.4276147 512.37655187 189.51210135 512.38066885 187.59658813 512.38485241 C178.59067889 512.40390136 169.5847778 512.41812988 160.5788523 512.42646438 C150.2112229 512.43621918 139.843808 512.46249392 129.47625411 512.50296527 C121.44625954 512.53322629 113.41632608 512.54794291 105.38627565 512.55124539 C100.59868044 512.55358557 95.81131443 512.56240987 91.02378082 512.58770657 C86.51093169 512.61116601 81.99845973 512.61514954 77.48556519 512.60494518 C75.84059003 512.60445393 74.19559517 512.6106512 72.55067825 512.62450123 C58.91216632 512.73279157 46.30001941 510.8765884 34.0540657 504.38422108 C33.38874832 504.04060535 32.72343094 503.69698963 32.03795242 503.34296131 C26.23863387 500.25182174 21.26043532 496.51866057 16.3665657 492.13422108 C15.14066727 491.10361561 15.14066727 491.10361561 13.8900032 490.05218983 C2.95523712 480.65777005 -5.36109439 469.47487157 -12.6334343 457.13422108 C-13.00855148 456.49919666 -13.38366867 455.86417225 -13.77015305 455.20990467 C-24.46983284 436.79130058 -30.63744695 416.97290668 -34.6334343 396.13422108 C-34.86804367 394.94183826 -35.10265305 393.74945545 -35.3443718 392.52093983 C-45.43878474 332.61279342 -23.23883057 276.92508316 -0.5709343 222.81000233 C8.96265196 199.96324237 17.93475731 176.77592758 21.3665657 152.13422108 C21.51480789 151.15968983 21.66305008 150.18515858 21.81578445 149.18109608 C24.97974481 123.04760538 24.72457526 89.93101136 9.07359695 67.90765858 C4.23871023 61.83522533 -1.00240197 56.84924408 -7.1881218 52.16937733 C-10.70794815 49.23993718 -13.17758944 46.50175564 -14.6334343 42.13422108 C-14.86165004 37.75628238 -14.86172959 33.37599776 -14.87366867 28.99286366 C-14.88335335 26.83971686 -14.91437881 24.68753375 -14.9459343 22.5346117 C-14.95246718 21.15506005 -14.95771653 19.7755016 -14.9615593 18.39593983 C-14.970905 17.14772449 -14.9802507 15.89950916 -14.98987961 14.61346912 C-14.46527082 9.49278426 -12.88183865 6.26082989 -9.0709343 2.82172108 C-5.70907566 0.49428048 -4.03763085 0.00846971 0 0 Z M18.3665657 31.13422108 C21.93295363 35.29500699 25.41561446 39.25851587 29.1790657 43.19672108 C54.79659655 71.36057276 54.73380846 108.9916847 53.3665657 145.13422108 C53.03053948 150.03780376 52.49182143 154.89743916 51.8040657 159.76312733 C51.43446932 162.6109995 51.27860497 165.26999964 51.3665657 168.13422108 C51.98660477 168.0130492 52.60664383 167.89187733 53.24547195 167.76703358 C87.56205335 161.27335733 117.03530863 165.28365177 148.1165657 181.00922108 C172.79105016 193.48051573 198.02451563 202.20681454 225.7103157 194.35687733 C231.06147662 192.56743997 236.24543148 190.50080583 241.3665657 188.13422108 C240.61974013 182.40855834 239.53114376 176.78833192 238.3665657 171.13422108 C238.01048976 169.40544657 237.65628694 167.67628506 237.3040657 165.94672108 C237.14808914 165.19004139 236.99211258 164.4333617 236.83140945 163.65375233 C235.75311653 157.80922345 235.19960452 152.11280455 235.1634407 146.17328358 C235.15774063 145.42444904 235.15204056 144.67561451 235.14616776 143.90408802 C235.13676825 142.32244726 235.130204 140.74078737 235.12633133 139.15912342 C235.11673241 136.80018844 235.08570656 134.44216705 235.0540657 132.08343983 C234.89309458 108.98975202 241.5623684 88.300668 249.80040359 66.92572498 C254.57060831 54.40520701 256.3665657 44.99839575 256.3665657 31.13422108 C177.8265657 31.13422108 99.2865657 31.13422108 18.3665657 31.13422108 Z " fill="#53001C" transform="translate(85.6334342956543,-0.13422107696533203)"/>
<path d="M0 0 C1.47389918 -0.00668677 1.47389918 -0.00668677 2.97757411 -0.01350862 C4.06490313 -0.01332426 5.15223215 -0.01313989 6.27251053 -0.01294994 C7.99606636 -0.01846498 7.99606636 -0.01846498 9.7544415 -0.02409142 C12.95358936 -0.03322947 16.15270708 -0.03783041 19.35186577 -0.04048073 C22.79847514 -0.04437975 26.2450696 -0.05395838 29.69166946 -0.0626936 C38.02018741 -0.08246969 46.3487066 -0.09252578 54.67724216 -0.10142139 C58.59750058 -0.10580252 62.51775764 -0.11116979 66.43801498 -0.11641026 C79.46689321 -0.13342388 92.49577058 -0.1479185 105.5246582 -0.155159 C108.90685655 -0.15706895 112.28905489 -0.15898927 115.6712532 -0.16094494 C116.5119017 -0.16142868 117.3525502 -0.16191242 118.2186729 -0.16241082 C131.83950564 -0.17071278 145.4602506 -0.19605189 159.081045 -0.22852562 C173.05939246 -0.26158058 187.03769529 -0.27960635 201.01608205 -0.28280324 C208.86679859 -0.28496982 216.71738715 -0.29373996 224.56806564 -0.31926441 C231.25357471 -0.34095014 237.93892471 -0.3490324 244.62446496 -0.33929763 C248.03589542 -0.33474663 251.44699755 -0.33668492 254.85838318 -0.35605907 C258.55676371 -0.37366625 262.25430623 -0.36672589 265.95268631 -0.35352612 C267.03109244 -0.36449536 268.10949857 -0.37546461 269.22058368 -0.38676625 C275.27323727 -0.33446456 278.75380172 0.10737348 283.3665657 4.13422108 C287.16921099 8.13700558 287.5617184 11.02552932 287.4681282 16.35297108 C287.44613358 17.97622303 287.44613358 17.97622303 287.42369461 19.63226795 C287.40484207 20.45791248 287.38598953 21.28355701 287.3665657 22.13422108 C288.92214188 22.10280018 288.92214188 22.10280018 290.50914383 22.07074451 C294.43787129 21.99713972 298.36654107 21.95199426 302.29576492 21.91449451 C303.98109125 21.89464832 305.66635131 21.86756215 307.35142899 21.83246326 C327.9488034 21.41486593 345.99251591 25.38109413 361.3665657 40.13422108 C375.64858784 56.21573244 378.52052236 73.75666081 378.51182938 94.53900623 C378.51482657 95.97723445 378.51823038 97.41546186 378.52200699 98.85368824 C378.5307899 102.73573724 378.53318256 106.61776416 378.53382277 110.49982214 C378.53453603 112.92865093 378.53667545 115.3574742 378.53931999 117.78630161 C378.54855144 126.26881482 378.55265726 134.75131238 378.55186844 143.23383045 C378.55126684 151.12792084 378.56184044 159.02194308 378.5776121 166.91601622 C378.59069735 173.70861081 378.59605199 180.50118313 378.59541303 187.29379022 C378.59515852 191.3443504 378.59798429 195.39484981 378.60859108 199.44539738 C378.61828976 203.25233492 378.61833917 207.05915376 378.61107445 210.86609554 C378.61003111 212.25963928 378.61237655 213.6531905 378.61843491 215.04672146 C378.68417736 231.22065214 378.68417736 231.22065214 374.1790657 236.88422108 C369.85734203 240.34160002 365.9201527 242.51114773 360.3040657 242.07172108 C355.21454331 241.15442344 351.64866611 238.85842506 348.5540657 234.69672108 C346.44213065 230.13938755 346.24096727 225.83837135 346.23526382 220.86096668 C346.22925156 218.96436047 346.22925156 218.96436047 346.22311783 217.02943897 C346.22359287 215.63565538 346.22412897 214.24187181 346.22472 212.84808826 C346.2216865 211.37428655 346.21816452 209.90048577 346.21419144 208.42668629 C346.20631613 205.25648107 346.20116266 202.08628704 346.19790077 198.9160738 C346.19197693 193.89762928 346.17542317 188.87925517 346.15655899 183.86084461 C346.15022194 182.14067177 346.14389631 180.42049889 346.13758183 178.70032597 C346.13441601 177.83896046 346.1312502 176.97759496 346.12798846 176.09012747 C346.0859633 164.41099013 346.05294382 152.73188604 346.04063797 141.05267811 C346.032246 133.16891192 346.00971435 125.28532072 345.9712823 117.40164208 C345.95156187 113.23354069 345.93910372 109.06570064 345.94411659 104.89754963 C345.94877807 100.97394865 345.93487654 97.05084255 345.90710449 93.12734127 C345.90021816 91.69273281 345.90003849 90.25807289 345.90730476 88.8234663 C345.95601637 78.1197175 344.58474087 69.79382649 337.2103157 61.70453358 C330.09594295 55.64525847 322.38000227 53.9737906 313.3196907 54.03656483 C312.16288803 54.03868725 312.16288803 54.03868725 310.98271561 54.04085255 C308.52729232 54.04643574 306.07196128 54.05898512 303.6165657 54.07172108 C301.94859827 54.07673825 300.28062941 54.08130078 298.61265945 54.08539295 C294.53059283 54.09639967 290.44859489 54.11365271 286.3665657 54.13422108 C286.03785477 55.37172108 285.70914383 56.60922108 285.37047195 57.88422108 C282.62975638 67.94695602 279.50960432 77.71889491 275.7415657 87.44672108 C255.81887247 139.00406135 272.75760128 185.2461923 293.04344559 233.41774464 C320.68413378 299.07287109 338.92876059 366.90297307 311.3665657 436.13422108 C308.99561525 441.62888077 306.23646704 446.88763904 303.3665657 452.13422108 C302.73327478 453.33579196 302.10045597 454.5376118 301.4681282 455.73968983 C287.74222112 481.30520543 266.21317964 501.61724588 238.3665657 510.59125233 C233.59701806 511.88610999 229.21069255 512.26459009 224.26051712 512.2813921 C223.55629037 512.28506879 222.85206362 512.28874547 222.12649667 512.29253358 C219.77243017 512.30352491 217.41840788 512.30740657 215.06431961 512.31122303 C213.37365455 512.3174914 211.68299085 512.32413853 209.99232864 512.33113575 C204.44260486 512.35214395 198.89288092 512.36253894 193.3431282 512.37250233 C191.4276147 512.37655187 189.51210135 512.38066885 187.59658813 512.38485241 C178.59067889 512.40390136 169.5847778 512.41812988 160.5788523 512.42646438 C150.2112229 512.43621918 139.843808 512.46249392 129.47625411 512.50296527 C121.44625954 512.53322629 113.41632608 512.54794291 105.38627565 512.55124539 C100.59868044 512.55358557 95.81131443 512.56240987 91.02378082 512.58770657 C86.51093169 512.61116601 81.99845973 512.61514954 77.48556519 512.60494518 C75.84059003 512.60445393 74.19559517 512.6106512 72.55067825 512.62450123 C58.91216632 512.73279157 46.30001941 510.8765884 34.0540657 504.38422108 C33.38874832 504.04060535 32.72343094 503.69698963 32.03795242 503.34296131 C26.23863387 500.25182174 21.26043532 496.51866057 16.3665657 492.13422108 C15.14066727 491.10361561 15.14066727 491.10361561 13.8900032 490.05218983 C2.95523712 480.65777005 -5.36109439 469.47487157 -12.6334343 457.13422108 C-13.00855148 456.49919666 -13.38366867 455.86417225 -13.77015305 455.20990467 C-24.46983284 436.79130058 -30.63744695 416.97290668 -34.6334343 396.13422108 C-34.86804367 394.94183826 -35.10265305 393.74945545 -35.3443718 392.52093983 C-45.43878474 332.61279342 -23.23883057 276.92508316 -0.5709343 222.81000233 C8.96265196 199.96324237 17.93475731 176.77592758 21.3665657 152.13422108 C21.51480789 151.15968983 21.66305008 150.18515858 21.81578445 149.18109608 C24.97974481 123.04760538 24.72457526 89.93101136 9.07359695 67.90765858 C4.23871023 61.83522533 -1.00240197 56.84924408 -7.1881218 52.16937733 C-10.70794815 49.23993718 -13.17758944 46.50175564 -14.6334343 42.13422108 C-14.86165004 37.75628238 -14.86172959 33.37599776 -14.87366867 28.99286366 C-14.88335335 26.83971686 -14.91437881 24.68753375 -14.9459343 22.5346117 C-14.95246718 21.15506005 -14.95771653 19.7755016 -14.9615593 18.39593983 C-14.970905 17.14772449 -14.9802507 15.89950916 -14.98987961 14.61346912 C-14.46527082 9.49278426 -12.88183865 6.26082989 -9.0709343 2.82172108 C-5.70907566 0.49428048 -4.03763085 0.00846971 0 0 Z M18.3665657 31.13422108 C21.93295363 35.29500699 25.41561446 39.25851587 29.1790657 43.19672108 C54.79659655 71.36057276 54.73380846 108.9916847 53.3665657 145.13422108 C53.03053948 150.03780376 52.49182143 154.89743916 51.8040657 159.76312733 C51.43446932 162.6109995 51.27860497 165.26999964 51.3665657 168.13422108 C51.98660477 168.0130492 52.60664383 167.89187733 53.24547195 167.76703358 C87.56205335 161.27335733 117.03530863 165.28365177 148.1165657 181.00922108 C172.79105016 193.48051573 198.02451563 202.20681454 225.7103157 194.35687733 C231.06147662 192.56743997 236.24543148 190.50080583 241.3665657 188.13422108 C240.61974013 182.40855834 239.53114376 176.78833192 238.3665657 171.13422108 C238.01048976 169.40544657 237.65628694 167.67628506 237.3040657 165.94672108 C237.14808914 165.19004139 236.99211258 164.4333617 236.83140945 163.65375233 C235.75311653 157.80922345 235.19960452 152.11280455 235.1634407 146.17328358 C235.15774063 145.42444904 235.15204056 144.67561451 235.14616776 143.90408802 C235.13676825 142.32244726 235.130204 140.74078737 235.12633133 139.15912342 C235.11673241 136.80018844 235.08570656 134.44216705 235.0540657 132.08343983 C234.89309458 108.98975202 241.5623684 88.300668 249.80040359 66.92572498 C254.57060831 54.40520701 256.3665657 44.99839575 256.3665657 31.13422108 C177.8265657 31.13422108 99.2865657 31.13422108 18.3665657 31.13422108 Z M38.01890945 208.36078358 C35.82268085 210.7179651 34.50922079 213.08291204 33.2571907 216.03656483 C32.28405002 218.32856723 31.1112838 220.41595931 29.8665657 222.57172108 C23.08651373 234.70986884 18.35490633 248.03401781 13.83678055 261.15472889 C12.32922949 265.50294662 10.73230506 269.8042236 9.05797195 274.09125233 C3.6129052 287.88942226 3.6129052 287.88942226 0.81578445 302.37250233 C0.31351186 305.4603869 -0.71724346 307.75715568 -2.0709343 310.57172108 C-9.22344044 326.69123345 -8.31458765 346.82257865 -8.6334343 364.13422108 C-8.66066574 365.36849842 -8.68789719 366.60277576 -8.71595383 367.87445545 C-8.79335588 371.73190104 -8.84320824 375.58872124 -8.8834343 379.44672108 C-8.90494553 380.63209461 -8.92645676 381.81746815 -8.94861984 383.03876209 C-8.98822244 393.62460988 -6.81742666 402.92630273 -2.6959343 412.63422108 C-0.84482648 417.06297109 0.83908588 421.47782051 2.2415657 426.07172108 C4.7521685 433.83366804 8.58400626 440.93339059 12.3665657 448.13422108 C12.90797195 449.18480701 13.4493782 450.23539295 14.0071907 451.31781483 C15.40111784 453.96260815 16.86165452 456.55135385 18.3665657 459.13422108 C18.74297195 459.84965076 19.1193782 460.56508045 19.5071907 461.30218983 C23.7522497 468.24742875 31.08618688 470.86849453 38.20103836 474.10785389 C40.32800882 475.11594676 42.3814948 476.20593458 44.44078445 477.34515858 C45.10996902 477.70738514 45.77915359 478.0696117 46.46861649 478.44281483 C47.71177333 479.11904261 48.94706137 479.81011455 50.17076492 480.52093983 C61.05605022 486.28216897 75.29234143 485.43003179 87.2728157 485.36468983 C88.76894974 485.36349025 90.26508453 485.36304649 91.76121902 485.36330128 C94.88411119 485.36175006 98.00688656 485.35358158 101.1297493 485.34003162 C105.0297296 485.32327801 108.92958083 485.31929524 112.8295927 485.31985664 C129.28769133 485.31922378 145.71056076 485.09406762 162.15808487 484.48499012 C170.8034752 484.17748348 179.43099006 484.08109772 188.08140945 484.09906483 C191.63830213 484.09165369 195.19517917 484.08154904 198.75206375 484.07098866 C201.14695587 484.07148248 203.54187521 484.08478218 205.93663406 484.11005116 C221.09501372 484.25171825 232.53116941 483.56765416 245.3665657 475.13422108 C246.18447586 474.67708729 247.00238602 474.2199535 247.84508133 473.74896717 C255.91847417 469.18829469 261.51875804 461.95311936 266.9915657 454.63422108 C267.5381282 453.91363514 268.0846907 453.1930492 268.6478157 452.45062733 C270.23274464 450.35381943 271.8023842 448.24653672 273.3665657 446.13422108 C273.83683182 445.50620594 274.30709793 444.8781908 274.79161453 444.23114491 C278.75859103 438.83749381 281.0395976 433.37159712 283.3665657 427.13422108 C283.61052078 426.48550037 283.85447586 425.83677967 284.10582352 425.16840076 C290.76401211 407.20736597 294.5127057 388.37452712 294.53453445 369.20453358 C294.53786285 368.17415974 294.54119125 367.1437859 294.54462051 366.08218861 C294.54966117 363.91220003 294.55202973 361.74220378 294.55186844 359.57220936 C294.55405435 356.27634218 294.57223931 352.98081041 294.59117508 349.68500233 C294.59410983 347.56651388 294.59609408 345.44802385 294.59703445 343.32953358 C294.60781273 341.8696854 294.60781273 341.8696854 294.61880875 340.38034534 C294.59193231 332.217562 293.56048916 324.68349471 290.3665657 317.13422108 C289.73196058 314.67893662 289.13009002 312.2278539 288.5540657 309.75922108 C286.95057542 303.1169484 284.95010838 296.70580895 282.70640945 290.24750233 C281.68155368 287.20907979 280.81343842 284.15261178 279.99547195 281.05218983 C277.39408393 271.21996114 274.45241225 262.57746177 269.38609695 253.75531483 C264.29839745 244.86222127 260.64337767 235.13394845 257.27672195 225.48578358 C255.97610504 222.12539138 254.26773831 219.18967704 252.3665657 216.13422108 C248.5848837 216.98723206 244.97037685 218.25804975 241.3040657 219.50922108 C219.60739653 226.80726342 194.20717431 230.53018898 172.6634407 220.54437733 C168.62188635 218.81570301 164.51020344 217.58245909 160.3040657 216.32172108 C153.41698956 214.21418158 146.71016486 211.82554318 140.0540657 209.07172108 C139.27216873 208.75549793 138.49027176 208.43927479 137.68468094 208.11346912 C134.13339609 206.60694539 131.17049546 205.13743853 128.28453445 202.55609608 C124.9462606 199.78537347 122.11937459 198.72761847 117.9915657 197.44672108 C116.74633133 197.05097889 115.50109695 196.6552367 114.2181282 196.24750233 C88.82330095 188.76431591 58.93120419 190.619451 38.01890945 208.36078358 Z " fill="#000000" transform="translate(85.6334342956543,-0.13422107696533203)"/>
</svg>
